HIERARCHY
ROOT Hips
{
	OFFSET 0.000000 71.427986 0.000000
	CHANNELS 6 Xposition Yposition Zposition Xrotation Yrotation Zrotation
	JOINT Pelvis
	{
		OFFSET 0.000000 0.000000 0.000000
		CHANNELS 3 Xrotation Yrotation Zrotation
		JOINT LeftUpLeg
		{
			OFFSET 6.797100 -2.508499 -1.318700
			CHANNELS 3 Xrotation Yrotation Zrotation
			JOINT LeftLeg
			{
				OFFSET 0.069008 -29.241863 0.690200
				CHANNELS 3 Xrotation Yrotation Zrotation
				JOINT LeftFoot
				{
					OFFSET -0.069008 -29.568123 -0.266800
					CHANNELS 3 Xrotation Yrotation Zrotation
					JOINT LeftToeBase
					{
						OFFSET 3.145500 -8.631000 16.059900
						CHANNELS 3 Xrotation Yrotation Zrotation
						End Site
						{
							OFFSET 0.000000 18.501587 0.000000
						}
					}
				}
			}
			JOINT Left_ShortSleeve
			{
				OFFSET 0.265923 -10.480953 1.153800
				CHANNELS 3 Xrotation Yrotation Zrotation
				End Site
				{
					OFFSET 1.725763 19.823879 0.000000
				}
			}
		}
		JOINT RightUpLeg
		{
			OFFSET -6.797100 -2.508499 -1.318700
			CHANNELS 3 Xrotation Yrotation Zrotation
			JOINT RightLeg
			{
				OFFSET -0.082453 -29.241932 0.688000
				CHANNELS 3 Xrotation Yrotation Zrotation
				JOINT RightFoot
				{
					OFFSET 0.082453 -29.568058 -0.264600
					CHANNELS 3 Xrotation Yrotation Zrotation
					JOINT RightToeBase
					{
						OFFSET -3.115300 -8.682800 16.113400
						CHANNELS 3 Xrotation Yrotation Zrotation
						End Site
						{
							OFFSET 0.000000 18.567114 0.000000
						}
					}
				}
			}
			JOINT Right_ShortSleeve
			{
				OFFSET -0.265923 -10.480953 1.153800
				CHANNELS 3 Xrotation Yrotation Zrotation
				End Site
				{
					OFFSET -1.725766 19.823910 0.000000
				}
			}
		}
	}
	JOINT Spine
	{
		OFFSET 0.000000 13.368103 0.470500
		CHANNELS 3 Xrotation Yrotation Zrotation
		JOINT Spine1
		{
			OFFSET 0.147000 13.837402 0.538800
			CHANNELS 3 Xrotation Yrotation Zrotation
			JOINT Spine2
			{
				OFFSET 0.168000 16.242897 -1.435500
				CHANNELS 3 Xrotation Yrotation Zrotation
				JOINT Neck
				{
					OFFSET 0.217200 18.631500 -1.679100
					CHANNELS 3 Xrotation Yrotation Zrotation
					JOINT Head
					{
						OFFSET 0.000000 6.599396 1.385900
						CHANNELS 3 Xrotation Yrotation Zrotation
						JOINT Hat
						{
							OFFSET -0.532200 27.220596 -10.096100
							CHANNELS 3 Xrotation Yrotation Zrotation
							End Site
							{
								OFFSET 0.000000 22.029861 0.000000
							}
						}
						JOINT HairD
						{
							OFFSET -10.777400 17.437393 -1.325900
							CHANNELS 3 Xrotation Yrotation Zrotation
							JOINT HairD1
							{
								OFFSET -3.290299 -11.051193 1.062200
								CHANNELS 3 Xrotation Yrotation Zrotation
								End Site
								{
									OFFSET 0.000000 11.579437 0.000000
								}
							}
						}
						JOINT HairB
						{
							OFFSET -10.777400 17.437393 1.467900
							CHANNELS 3 Xrotation Yrotation Zrotation
							JOINT HairB1
							{
								OFFSET -1.561200 -12.956299 3.590200
								CHANNELS 3 Xrotation Yrotation Zrotation
								End Site
								{
									OFFSET 0.000000 13.534866 0.000000
								}
							}
						}
						JOINT HairA
						{
							OFFSET 9.713100 17.437393 1.467900
							CHANNELS 3 Xrotation Yrotation Zrotation
							JOINT HairA1
							{
								OFFSET 1.561200 -12.956299 3.590200
								CHANNELS 3 Xrotation Yrotation Zrotation
								End Site
								{
									OFFSET 0.000000 13.534866 0.000000
								}
							}
						}
						JOINT HairC
						{
							OFFSET 9.713100 17.437393 -1.325900
							CHANNELS 3 Xrotation Yrotation Zrotation
							JOINT HairC1
							{
								OFFSET 3.290300 -11.051193 1.062200
								CHANNELS 3 Xrotation Yrotation Zrotation
								End Site
								{
									OFFSET 0.000000 11.579437 0.000000
								}
							}
						}
					}
				}
				JOINT LeftShoulder
				{
					OFFSET 5.101800 15.108002 -2.763700
					CHANNELS 3 Xrotation Yrotation Zrotation
					JOINT LeftArm
					{
						OFFSET 9.825497 2.506317 -1.597400
						CHANNELS 3 Xrotation Yrotation Zrotation
						JOINT LeftForeArm
						{
							OFFSET 21.966244 0.000000 0.000000
							CHANNELS 3 Xrotation Yrotation Zrotation
							JOINT LeftHand
							{
								OFFSET 33.879036 0.000000 0.000000
								CHANNELS 3 Xrotation Yrotation Zrotation
								JOINT LeftHandThumb1
								{
									OFFSET 6.715286 -2.359680 3.363841
									CHANNELS 3 Xrotation Yrotation Zrotation
									JOINT LeftHandThumb2
									{
										OFFSET 2.507072 -1.447464 1.447461
										CHANNELS 3 Xrotation Yrotation Zrotation
										JOINT LeftHandThumb3
										{
											OFFSET 2.898338 -1.673355 1.673357
											CHANNELS 3 Xrotation Yrotation Zrotation
											End Site
											{
												OFFSET -0.295959 3.727692 -0.131651
											}
										}
									}
								}
								JOINT LeftHandIndex1
								{
									OFFSET 14.190811 -0.254547 3.840278
									CHANNELS 3 Xrotation Yrotation Zrotation
									JOINT LeftHandIndex2
									{
										OFFSET 3.551727 0.000000 -0.000000
										CHANNELS 3 Xrotation Yrotation Zrotation
										JOINT LeftHandIndex3
										{
											OFFSET 2.894196 0.000000 0.000000
											CHANNELS 3 Xrotation Yrotation Zrotation
											End Site
											{
												OFFSET -1.000603 2.690872 0.366626
											}
										}
									}
								}
								JOINT LeftHandMiddle1
								{
									OFFSET 13.776489 0.000000 0.000000
									CHANNELS 3 Xrotation Yrotation Zrotation
									JOINT LeftHandMiddle2
									{
										OFFSET 3.438232 0.000000 0.000000
										CHANNELS 3 Xrotation Yrotation Zrotation
										JOINT LeftHandMiddle3
										{
											OFFSET 3.691551 0.000000 0.000000
											CHANNELS 3 Xrotation Yrotation Zrotation
											End Site
											{
												OFFSET -1.082298 3.499527 0.457670
											}
										}
									}
								}
								JOINT LeftHandRing1
								{
									OFFSET 13.966164 -0.268127 -3.067488
									CHANNELS 3 Xrotation Yrotation Zrotation
									JOINT LeftHandRing2
									{
										OFFSET 3.162567 0.000000 0.000000
										CHANNELS 3 Xrotation Yrotation Zrotation
										JOINT LeftHandRing3
										{
											OFFSET 3.324348 0.000000 0.000000
											CHANNELS 3 Xrotation Yrotation Zrotation
											End Site
											{
												OFFSET -0.861900 3.184998 0.405154
											}
										}
									}
								}
								JOINT LeftHandPinky1
								{
									OFFSET 13.131393 -0.168503 -5.746925
									CHANNELS 3 Xrotation Yrotation Zrotation
									JOINT LeftHandPinky2
									{
										OFFSET 2.849182 0.000000 0.000000
										CHANNELS 3 Xrotation Yrotation Zrotation
										JOINT LeftHandPinky3
										{
											OFFSET 2.805038 0.000000 0.000000
											CHANNELS 3 Xrotation Yrotation Zrotation
											End Site
											{
												OFFSET -0.882500 2.642609 0.325652
											}
										}
									}
								}
							}
							JOINT Left_Sleeve
							{
								OFFSET 6.592125 -0.646545 0.805568
								CHANNELS 3 Xrotation Yrotation Zrotation
								End Site
								{
									OFFSET -0.000179 20.275787 -0.000000
								}
							}
						}
					}
				}
				JOINT RightShoulder
				{
					OFFSET -5.731700 15.108002 -2.763700
					CHANNELS 3 Xrotation Yrotation Zrotation
					JOINT RightArm
					{
						OFFSET -9.825497 2.506317 -1.597400
						CHANNELS 3 Xrotation Yrotation Zrotation
						JOINT RightForeArm
						{
							OFFSET -21.966242 0.000000 0.000000
							CHANNELS 3 Xrotation Yrotation Zrotation
							JOINT RightHand
							{
								OFFSET -33.879032 0.000000 0.000000
								CHANNELS 3 Xrotation Yrotation Zrotation
								JOINT RightHandThumb1
								{
									OFFSET -6.715286 -2.359680 3.363841
									CHANNELS 3 Xrotation Yrotation Zrotation
									JOINT RightHandThumb2
									{
										OFFSET -2.507072 -1.447464 1.447461
										CHANNELS 3 Xrotation Yrotation Zrotation
										JOINT RightHandThumb3
										{
											OFFSET -2.898338 -1.673355 1.673357
											CHANNELS 3 Xrotation Yrotation Zrotation
											End Site
											{
												OFFSET 0.295959 3.727692 -0.131651
											}
										}
									}
								}
								JOINT RightHandIndex1
								{
									OFFSET -14.190811 -0.254547 3.840278
									CHANNELS 3 Xrotation Yrotation Zrotation
									JOINT RightHandIndex2
									{
										OFFSET -3.551727 0.000000 -0.000000
										CHANNELS 3 Xrotation Yrotation Zrotation
										JOINT RightHandIndex3
										{
											OFFSET -2.894196 0.000000 0.000000
											CHANNELS 3 Xrotation Yrotation Zrotation
											End Site
											{
												OFFSET 1.000603 2.690872 0.366626
											}
										}
									}
								}
								JOINT RightHandMiddle1
								{
									OFFSET -13.776489 0.000000 0.000000
									CHANNELS 3 Xrotation Yrotation Zrotation
									JOINT RightHandMiddle2
									{
										OFFSET -3.438232 0.000000 0.000000
										CHANNELS 3 Xrotation Yrotation Zrotation
										JOINT RightHandMiddle3
										{
											OFFSET -3.691551 0.000000 0.000000
											CHANNELS 3 Xrotation Yrotation Zrotation
											End Site
											{
												OFFSET 1.082298 3.499527 0.457670
											}
										}
									}
								}
								JOINT RightHandRing1
								{
									OFFSET -13.966164 -0.268127 -3.067488
									CHANNELS 3 Xrotation Yrotation Zrotation
									JOINT RightHandRing2
									{
										OFFSET -3.162567 0.000000 0.000000
										CHANNELS 3 Xrotation Yrotation Zrotation
										JOINT RightHandRing3
										{
											OFFSET -3.324348 0.000000 0.000000
											CHANNELS 3 Xrotation Yrotation Zrotation
											End Site
											{
												OFFSET 0.861900 3.184998 0.405154
											}
										}
									}
								}
								JOINT RightHandPinky1
								{
									OFFSET -13.131393 -0.168503 -5.746925
									CHANNELS 3 Xrotation Yrotation Zrotation
									JOINT RightHandPinky2
									{
										OFFSET -2.849182 0.000000 0.000000
										CHANNELS 3 Xrotation Yrotation Zrotation
										JOINT RightHandPinky3
										{
											OFFSET -2.805038 0.000000 0.000000
											CHANNELS 3 Xrotation Yrotation Zrotation
											End Site
											{
												OFFSET 0.882500 2.642609 0.325652
											}
										}
									}
								}
							}
							JOINT Right_Sleeve
							{
								OFFSET -6.592125 -0.646545 0.805568
								CHANNELS 3 Xrotation Yrotation Zrotation
								End Site
								{
									OFFSET 0.000179 20.275787 -0.000000
								}
							}
						}
					}
				}
				JOINT Bind_Right_JacketString
				{
					OFFSET -3.534800 11.969597 7.200700
					CHANNELS 3 Xrotation Yrotation Zrotation
					JOINT Bind_Right_JacketString1
					{
						OFFSET -0.319900 -6.102600 2.794100
						CHANNELS 3 Xrotation Yrotation Zrotation
						End Site
						{
							OFFSET 0.000000 6.719452 0.000000
						}
					}
				}
				JOINT Bind_Left_JacketString
				{
					OFFSET 2.904800 11.969597 7.200700
					CHANNELS 3 Xrotation Yrotation Zrotation
					JOINT Bind_Left_JacketString1
					{
						OFFSET 0.364800 -5.904503 3.186800
						CHANNELS 3 Xrotation Yrotation Zrotation
						End Site
						{
							OFFSET 0.000000 6.719513 0.000000
						}
					}
				}
				JOINT HairE
				{
					OFFSET 5.915200 17.612701 -11.592200
					CHANNELS 3 Xrotation Yrotation Zrotation
					JOINT HairE1
					{
						OFFSET 0.289200 -7.171898 -1.284500
						CHANNELS 3 Xrotation Yrotation Zrotation
						End Site
						{
							OFFSET 0.000000 7.291756 0.000000
						}
					}
				}
				JOINT HairF
				{
					OFFSET -0.864800 17.612701 -11.592200
					CHANNELS 3 Xrotation Yrotation Zrotation
					JOINT HairF1
					{
						OFFSET 0.000000 -14.087097 -2.127501
						CHANNELS 3 Xrotation Yrotation Zrotation
						End Site
						{
							OFFSET 0.000000 14.246841 0.000000
						}
					}
				}
				JOINT HairG
				{
					OFFSET -8.087700 17.612701 -11.592200
					CHANNELS 3 Xrotation Yrotation Zrotation
					JOINT HairG1
					{
						OFFSET -0.293600 -6.081398 -0.910100
						CHANNELS 3 Xrotation Yrotation Zrotation
						End Site
						{
							OFFSET 0.000000 6.156120 0.000000
						}
					}
				}
			}
		}
	}
	JOINT Pouch
	{
		OFFSET 0.000000 4.394501 10.847300
		CHANNELS 3 Xrotation Yrotation Zrotation
		End Site
		{
			OFFSET 0.000000 21.880577 0.000000
		}
	}
	JOINT Bag
	{
		OFFSET -13.229000 4.813004 -0.593300
		CHANNELS 3 Xrotation Yrotation Zrotation
		End Site
		{
			OFFSET 0.000000 21.880577 0.000000
		}
	}
	JOINT OccupyGuyFacialAnim_Joint
	{
		OFFSET 1.000000 -70.206398 -1.655000
		CHANNELS 3 Xrotation Yrotation Zrotation
		End Site
		{
			OFFSET 0.000000 21.880577 0.000000
		}
	}
}
MOTION
Frames: 4
Frame Time: 0.016667
4.919850 70.988678 0.882854 0.023836 -13.962985 -2.098818 0.000000 -0.000000 -0.000000 -13.467914 22.328163 6.846524 22.683632 10.003200 5.355303 -10.124066 7.635947 -6.880404 -0.000000 0.000001 -0.000000 -0.000001 0.000001 -0.000000 -9.063931 -19.389473 -7.408823 8.954222 10.008480 -2.852142 -1.939457 7.887333 9.118516 0.000000 0.000000 -0.000000 0.000000 -0.000000 -0.000000 1.259260 -1.107264 -2.064522 0.247989 -0.899455 -0.732541 0.243785 -0.917157 -0.703880 0.749591 2.295818 1.468098 -1.250656 13.693913 -1.535068 0.000000 -0.000000 -0.000001 0.000000 -0.000000 -0.000001 0.000000 -0.000000 -0.000001 0.000000 -0.000000 -0.000000 -0.000000 -0.000000 -0.000000 0.000000 -0.000000 -0.000000 -0.000000 -0.000000 -0.000000 0.000000 -0.000000 -0.000001 0.000000 -0.000000 -0.000001 -1.488744 9.670791 -3.001458 40.860459 -60.704829 -25.987225 0.000012 -22.817341 0.000006 -25.332878 2.522399 11.628335 -3.405774 19.076280 14.453271 15.249463 14.620665 -5.800662 0.000002 -0.000001 -0.000001 0.380313 2.260837 -19.095160 0.158445 1.471496 -12.290090 0.000002 0.000001 -0.000002 0.379686 2.259010 -19.079164 0.158852 1.473378 -12.306087 -0.000000 0.000004 -0.000002 0.380309 2.260816 -19.095168 0.158442 1.471501 -12.290080 -0.000004 -0.000001 0.000002 1.696004 6.096997 -18.680658 0.153598 -2.584206 -12.789170 0.000000 -0.000001 -0.000001 0.000000 0.000001 -0.000002 4.389556 5.095585 -14.946397 -41.397848 -19.780008 36.650829 -0.000050 107.697712 0.000041 -54.775313 -10.060515 16.832141 -38.571837 8.421501 28.523268 20.647184 -5.709680 -0.778447 -0.000001 -0.000001 0.000003 6.266129 -6.914850 84.352338 5.176764 -6.719673 75.194775 -0.000001 0.000001 0.000004 6.266133 -6.914841 84.352344 5.176768 -6.719682 75.194775 -0.000000 -0.000000 0.000001 6.266100 -6.914788 84.352344 5.176768 -6.719707 75.194775 0.000004 -0.000004 -0.000001 6.266119 -6.914853 84.352344 5.176792 -6.719710 75.194768 -0.000003 0.000000 0.000000 0.000001 0.000001 -0.000002 0.000000 0.000000 -0.000000 0.000000 0.000002 0.000000 0.000000 0.000000 -0.000000 0.000000 0.000000 -0.000000 0.000000 0.000000 -0.000000 0.000000 0.000002 -0.000000 0.000000 0.000000 -0.000000 0.000000 0.000000 -0.000000 0.000000 0.000000 -0.000000 0.000000 0.000002 -0.000000 0.000000 -0.000000 -0.000000 0.000000 -0.000000 -0.000000 0.000000 -0.000000 -0.000000 
4.798826 70.995689 0.885446 0.038786 -13.776694 -2.105275 0.000000 -0.000000 0.000000 -13.475093 22.249876 6.956793 22.591498 10.000854 5.340159 -10.015353 7.535006 -6.968351 -0.000000 -0.000001 0.000000 0.000000 0.000001 -0.000000 -9.088934 -19.252353 -7.385931 9.228029 10.007880 -2.715788 -2.124468 7.561562 8.939011 0.000000 -0.000000 0.000000 -0.000001 -0.000001 -0.000000 1.262291 -1.094127 -1.977974 0.244306 -0.890372 -0.689607 0.239954 -0.906834 -0.661085 0.708956 2.285035 1.414968 -1.291728 13.566503 -1.516494 -0.000000 -0.000000 0.000001 -0.000000 -0.000000 0.000001 -0.000000 -0.000000 0.000000 -0.000000 -0.000000 0.000001 -0.000000 0.000000 0.000000 -0.000000 -0.000000 0.000001 -0.000000 0.000000 0.000000 -0.000000 -0.000000 0.000001 -0.000000 -0.000000 0.000001 -1.481852 9.673275 -3.066330 40.859619 -60.864581 -25.969271 -0.000023 -22.750774 0.000003 -25.272308 2.521535 11.564779 -3.405774 19.076281 14.453261 15.249456 14.620662 -5.800664 0.000003 0.000002 -0.000003 0.380308 2.260837 -19.095163 0.158442 1.471499 -12.290090 -0.000002 0.000001 -0.000002 0.379683 2.259010 -19.079164 0.158852 1.473378 -12.306091 0.000003 0.000002 -0.000001 0.380308 2.260822 -19.095174 0.158450 1.471503 -12.290079 -0.000001 -0.000002 0.000001 1.696000 6.097000 -18.680660 0.153596 -2.584205 -12.789169 -0.000000 -0.000002 0.000002 -0.000000 0.000001 0.000001 4.393043 5.145394 -14.614272 -40.060043 -18.545347 36.976923 0.000062 107.194150 -0.000087 -53.879469 -10.236971 17.000807 -38.575443 8.422936 28.525134 25.307290 -7.950562 -1.561549 0.000001 -0.000001 -0.000002 5.616230 -6.820010 78.921142 4.647623 -6.558048 70.620051 -0.000001 0.000001 0.000006 5.616242 -6.819994 78.921121 4.647617 -6.558052 70.620065 0.000002 0.000003 0.000001 5.616217 -6.819942 78.921128 4.647614 -6.558064 70.620051 -0.000000 0.000002 0.000003 5.616231 -6.820002 78.921142 4.647626 -6.558068 70.620044 0.000002 -0.000002 0.000004 0.000000 -0.000000 0.000003 -0.000000 -0.000001 0.000000 -0.000000 0.000001 0.000000 -0.000000 -0.000001 0.000000 -0.000000 -0.000001 0.000000 -0.000000 -0.000001 0.000000 -0.000000 0.000001 -0.000000 -0.000000 -0.000001 0.000000 -0.000000 -0.000001 0.000000 -0.000000 -0.000001 0.000000 -0.000000 0.000001 -0.000000 0.000000 -0.000000 0.000000 0.000000 -0.000000 0.000000 0.000000 -0.000000 0.000000 
4.673111 71.003212 0.887882 0.047788 -13.592245 -2.117157 -0.000000 -0.000000 0.000000 -13.475768 22.158607 7.080993 22.500093 9.998427 5.310957 -9.906233 7.436306 -7.056199 0.000000 -0.000002 0.000000 -0.000001 -0.000000 -0.000000 -9.096593 -19.132224 -7.336444 9.485517 10.007664 -2.608475 -2.304713 7.249718 8.768717 0.000000 0.000001 0.000000 0.000000 -0.000002 0.000000 1.267357 -1.085320 -1.892214 0.241808 -0.884488 -0.647217 0.237302 -0.899711 -0.618709 0.663438 2.273469 1.368834 -1.324472 13.444068 -1.498669 -0.000000 0.000000 0.000000 -0.000000 0.000000 0.000000 -0.000000 0.000000 -0.000000 -0.000000 0.000000 0.000000 -0.000000 0.000000 0.000000 -0.000000 0.000000 0.000000 -0.000000 0.000000 0.000000 -0.000000 0.000000 0.000000 -0.000000 0.000000 0.000000 -1.475812 9.676770 -3.126219 40.863485 -61.027645 -25.944122 -0.000004 -22.683951 0.000009 -25.239984 2.530297 11.484767 -3.405775 19.076285 14.453268 15.249456 14.620662 -5.800662 0.000002 0.000002 0.000002 0.380310 2.260838 -19.095160 0.158447 1.471498 -12.290090 0.000003 0.000002 -0.000003 0.379685 2.259010 -19.079158 0.158853 1.473381 -12.306088 -0.000002 0.000003 -0.000001 0.380308 2.260822 -19.095174 0.158447 1.471500 -12.290080 0.000001 -0.000001 -0.000000 1.696007 6.097000 -18.680663 0.153596 -2.584207 -12.789168 -0.000003 0.000002 -0.000000 -0.000001 0.000001 -0.000001 4.393939 5.191683 -14.254584 -38.714800 -17.278386 37.271874 0.000025 106.679625 -0.000028 -53.035306 -10.392677 17.074676 -38.565628 8.419058 28.520042 29.758192 -10.003512 -1.882571 -0.000001 -0.000004 -0.000000 4.775621 -6.601432 71.737067 4.103748 -6.341892 65.781436 -0.000001 0.000002 -0.000003 4.775617 -6.601410 71.737053 4.103768 -6.341912 65.781449 0.000001 -0.000003 0.000002 4.775603 -6.601359 71.737060 4.103746 -6.341923 65.781422 0.000001 -0.000002 0.000000 4.775614 -6.601418 71.737067 4.103761 -6.341925 65.781443 0.000002 0.000002 0.000001 -0.000001 0.000002 -0.000002 -0.000000 -0.000000 -0.000000 -0.000000 -0.000000 0.000000 -0.000000 -0.000000 -0.000000 -0.000000 -0.000000 -0.000000 -0.000000 -0.000000 -0.000000 -0.000000 -0.000000 -0.000000 -0.000000 -0.000000 -0.000000 -0.000000 -0.000000 -0.000000 -0.000000 -0.000000 -0.000000 -0.000000 -0.000000 -0.000000 -0.000000 -0.000000 0.000000 -0.000000 -0.000000 0.000000 -0.000000 -0.000000 0.000000 
4.543356 71.011383 0.890041 0.046273 -13.409843 -2.135938 -0.000000 -0.000000 0.000000 -13.466347 22.057403 7.214603 22.407872 9.995748 5.278938 -9.793276 7.337070 -7.148893 0.000000 0.000002 0.000000 -0.000000 0.000001 0.000000 -9.078797 -19.017344 -7.262769 9.721529 10.007375 -2.521732 -2.477210 6.941597 8.605317 0.000000 0.000002 -0.000000 -0.000000 -0.000001 -0.000000 1.274196 -1.080986 -1.808248 0.240359 -0.881939 -0.605871 0.235707 -0.895951 -0.577245 0.611920 2.260313 1.331698 -1.350457 13.324899 -1.480448 0.000000 0.000000 -0.000000 0.000000 0.000000 -0.000000 0.000000 0.000000 -0.000000 0.000000 0.000000 -0.000000 -0.000000 0.000000 -0.000000 0.000000 0.000000 -0.000000 -0.000000 0.000000 -0.000000 0.000000 0.000000 -0.000000 0.000000 0.000000 -0.000000 -1.470859 9.679986 -3.176226 40.866180 -61.194889 -25.918637 0.000004 -22.613892 -0.000007 -25.231072 2.553759 11.386490 -3.405775 19.076280 14.453268 15.249456 14.620662 -5.800667 0.000002 -0.000003 -0.000003 0.380306 2.260835 -19.095163 0.158443 1.471500 -12.290092 0.000002 0.000001 -0.000002 0.379678 2.259011 -19.079160 0.158850 1.473381 -12.306088 0.000002 0.000000 0.000001 0.380305 2.260821 -19.095172 0.158442 1.471503 -12.290078 -0.000003 -0.000002 0.000002 1.696003 6.096996 -18.680656 0.153595 -2.584204 -12.789168 -0.000000 -0.000000 -0.000001 -0.000000 0.000000 -0.000004 4.391628 5.233458 -13.862315 -37.354991 -15.971183 37.525923 0.000084 106.153468 -0.000085 -52.233612 -10.519521 17.034869 -38.310381 8.317444 28.387248 33.606027 -11.676511 -1.838689 -0.000002 0.000002 -0.000002 3.866131 -6.230278 63.611492 3.573346 -6.077042 60.880659 0.000001 -0.000002 -0.000000 3.866129 -6.230264 63.611485 3.573353 -6.077066 60.880673 -0.000001 -0.000004 0.000004 3.866107 -6.230227 63.611485 3.573352 -6.077079 60.880659 -0.000002 0.000005 -0.000002 3.866122 -6.230276 63.611492 3.573352 -6.077081 60.880666 -0.000000 0.000001 0.000001 -0.000001 -0.000000 0.000002 -0.000000 -0.000001 0.000000 -0.000000 -0.000001 0.000000 -0.000000 -0.000001 0.000000 -0.000000 -0.000001 0.000000 -0.000000 -0.000001 0.000000 -0.000000 -0.000001 0.000000 -0.000000 -0.000001 0.000000 -0.000000 -0.000001 0.000000 -0.000000 -0.000001 0.000000 -0.000000 -0.000001 0.000000 -0.000000 -0.000000 0.000000 -0.000000 -0.000000 0.000000 -0.000000 -0.000000 0.000000 
